<svg xmlns="http://www.w3.org/2000/svg" viewBox="0 0 59 59"><path fill="#dcd6cd" d="M0 6.5v39h56v-39z"/><path d="M30.965 28.607c-1.637 1.462-4.292 1.462-5.93 0l-2.087-1.843C16.419 32.591 0 45.5 0 45.5h56S39.581 32.591 33.052 26.764l-2.087 1.843z" fill="#e8e3d9"/><path d="M0 6.5l25.035 22.107c1.637 1.462 4.292 1.462 5.93 0L56 6.5H0z" fill="#efebde"/><path d="M54.045 41.611c-.05-3.935-3.162-7.111-6.999-7.111-2.568 0-4.806 1.426-6.025 3.546a4.201 4.201 0 0 0-1.337-.22c-2.063 0-3.785 1.492-4.208 3.484a5.383 5.383 0 0 0-2.975 4.831c0 2.947 2.343 5.359 5.208 5.359h10.775c.061 0 .119-.007.18-.009.06.002.119.009.18.009h4.31c2.667 0 4.849-2.245 4.849-4.989-.003-2.43-1.715-4.465-3.958-4.9z" fill="#91bae1"/><path d="M53.151 52.5h-4.31c-.059 0-.117-.003-.175-.007a3.12 3.12 0 0 1-.185.007H37.708c-3.423 0-6.208-2.853-6.208-6.359 0-2.26 1.209-4.371 3.116-5.502.686-2.235 2.746-3.813 5.066-3.813.297 0 .592.025.884.076 1.495-2.116 3.915-3.402 6.479-3.402 4.102 0 7.524 3.225 7.954 7.333 2.358.805 4 3.078 4 5.678.001 3.302-2.623 5.989-5.848 5.989zm-4.521-2.009l.178.006 4.344.002c2.122 0 3.849-1.79 3.849-3.989 0-1.917-1.323-3.565-3.146-3.918l-.799-.155-.011-.814c-.044-3.376-2.734-6.124-5.999-6.124-2.134 0-4.063 1.138-5.158 3.045l-.409.711-.777-.262a3.201 3.201 0 0 0-1.019-.168c-1.54 0-2.898 1.132-3.229 2.692l-.102.474-.435.214c-1.468.725-2.417 2.27-2.417 3.935 0 2.403 1.888 4.359 4.208 4.359l10.922-.008z" fill="#8697cb"/></svg>