<svg xmlns="http://www.w3.org/2000/svg" viewBox="0 0 59 59"><path fill="#dcd6cd" d="M0 5.5v39h56v-39z"/><path d="M30.965 27.607c-1.637 1.462-4.292 1.462-5.93 0l-2.087-1.843C16.419 31.591 0 44.5 0 44.5h56S39.581 31.591 33.052 25.764l-2.087 1.843z" fill="#e8e3d9"/><path d="M0 5.5l25.035 22.107c1.637 1.462 4.292 1.462 5.93 0L56 5.5H0z" fill="#efebde"/><path d="M49 40.5h-2c-3.633-1.453-6-4.861-6-8.64V28.5h14v3.36c0 3.779-2.367 7.187-6 8.64zM47 40.5h2c3.633 1.453 6 4.861 6 8.64v3.36H41v-3.36c0-3.779 2.367-7.187 6-8.64z" fill="#91bae1"/><g fill="#556080"><path d="M38 29.5h20a1 1 0 1 0 0-2H38a1 1 0 1 0 0 2zM57.999 51.498h-18l-.01.002H38a1 1 0 1 0 0 2h3l.01-.002h16.989a1 1 0 1 0 0-2z"/></g></svg>