<svg xmlns="http://www.w3.org/2000/svg" viewBox="0 0 59 59"><path fill="#dcd6cd" d="M0 5.5v39h56v-39z"/><path d="M30.965 27.607c-1.637 1.462-4.292 1.462-5.93 0l-2.087-1.843C16.419 31.591 0 44.5 0 44.5h56S39.581 31.591 33.052 25.764l-2.087 1.843z" fill="#e8e3d9"/><path d="M0 5.5l25.035 22.107c1.637 1.462 4.292 1.462 5.93 0L56 5.5H0z" fill="#efebde"/><circle cx="46.5" cy="41" r="12.5" fill="#8697cb"/><g fill="#c1bdde"><path d="M56.193 41.519a.992.992 0 0 0-1.175.788c-.82 4.168-4.402 7.193-8.519 7.193-3.351 0-6.347-2.006-7.789-5H44v-2h-8v8h2v-3.341c1.976 2.657 5.086 4.341 8.5 4.341 5.068 0 9.477-3.704 10.481-8.807a1 1 0 0 0-.788-1.174zM55 31.498v3.341c-1.976-2.657-5.086-4.341-8.5-4.341-5.068 0-9.477 3.704-10.481 8.807a1 1 0 0 0 .788 1.174.992.992 0 0 0 1.175-.788c.82-4.168 4.402-7.193 8.519-7.193 3.351 0 6.347 2.006 7.789 5H49v2h8v-8h-2z"/></g></svg>