<svg xmlns="http://www.w3.org/2000/svg" viewBox="0 0 59 59"><path fill="#dcd6cd" d="M0 5.5v39h56v-39z"/><path d="M30.965 27.607c-1.637 1.462-4.292 1.462-5.93 0l-2.087-1.843C16.419 31.591 0 44.5 0 44.5h56S39.581 31.591 33.052 25.764l-2.087 1.843z" fill="#e8e3d9"/><path d="M0 5.5l25.035 22.107c1.637 1.462 4.292 1.462 5.93 0L56 5.5H0z" fill="#efebde"/><circle cx="46.5" cy="41" r="12.5" fill="#48a0dc"/><path d="M46.5 30.5c-4.718 0-8.88 3.182-10.121 7.737a1 1 0 1 0 1.93.526A8.51 8.51 0 0 1 46.5 32.5c4.687 0 8.5 3.813 8.5 8.5s-3.813 8.5-8.5 8.5a8.51 8.51 0 0 1-7.734-5H44v-2h-8v8h2V47.136c1.933 2.674 5.066 4.364 8.5 4.364C52.29 51.5 57 46.79 57 41s-4.71-10.5-10.5-10.5z" fill="#d0e8f9"/></svg>