<svg xmlns="http://www.w3.org/2000/svg" viewBox="0 0 58 58"><path fill="#dcd6cd" d="M0 5v39h56V5z"/><path d="M30.965 27.107c-1.637 1.462-4.292 1.462-5.93 0l-2.087-1.843C16.419 31.091 0 44 0 44h56S39.581 31.091 33.052 25.264l-2.087 1.843z" fill="#e8e3d9"/><path d="M0 5l25.035 22.107c1.637 1.462 4.292 1.462 5.93 0L56 5H0z" fill="#efebde"/><path d="M56.761 53H33.07a1.238 1.238 0 0 1-1.069-1.861l11.845-20.306a1.237 1.237 0 0 1 2.138 0L57.83 51.139A1.238 1.238 0 0 1 56.761 53z" fill="#efc41a"/><path d="M45 46a1 1 0 0 1-1-1v-8a1 1 0 0 1 2 0v8a1 1 0 0 1-1 1zM45 50c-.26 0-.52-.11-.71-.29-.18-.19-.29-.45-.29-.71 0-.26.11-.52.29-.71.38-.37 1.04-.37 1.42 0 .18.19.29.45.29.71 0 .26-.11.52-.29.71-.19.18-.44.29-.71.29z" fill="#fff"/></svg>