<svg xmlns="http://www.w3.org/2000/svg" viewBox="0 0 58 58"><path fill="#dcd6cd" d="M0 5v39h56V5z"/><path d="M30.965 27.107c-1.637 1.462-4.292 1.462-5.93 0l-2.087-1.843C16.419 31.091 0 44 0 44h56S39.581 31.091 33.052 25.264l-2.087 1.843z" fill="#e8e3d9"/><path d="M0 5l25.035 22.107c1.637 1.462 4.292 1.462 5.93 0L56 5H0z" fill="#efebde"/><circle cx="46" cy="41" r="12" fill="#ed7161"/><path d="M47.414 41l3.536-3.536a.999.999 0 1 0-1.414-1.414L46 39.586l-3.536-3.536a.999.999 0 1 0-1.414 1.414L44.586 41l-3.536 3.536a.999.999 0 1 0 1.414 1.414L46 42.414l3.536 3.536a.997.997 0 0 0 1.414 0 .999.999 0 0 0 0-1.414L47.414 41z" fill="#fff"/></svg>