<svg xmlns="http://www.w3.org/2000/svg" viewBox="0 0 58 58"><path fill="#dcd6cd" d="M0 5v39h56V5z"/><path d="M30.965 27.107c-1.637 1.462-4.292 1.462-5.93 0l-2.087-1.843C16.419 31.091 0 44 0 44h56S39.581 31.091 33.052 25.264l-2.087 1.843z" fill="#e8e3d9"/><path d="M0 5l25.035 22.107c1.637 1.462 4.292 1.462 5.93 0L56 5H0z" fill="#efebde"/><path d="M56.805 43.679l-.107.163c-7.121 10.876-18.773 10.876-25.893 0l.107-.163c7.121-10.876 18.773-10.876 25.893 0z" fill="#fff"/><circle cx="43.569" cy="41.397" r="5.909" fill="#556080"/><path d="M43.752 53c-5.254 0-10.148-3.058-13.783-8.609l-.358-.547.465-.711c3.635-5.552 8.53-8.609 13.784-8.609 5.253 0 10.148 3.057 13.783 8.609l.357.546-.465.711C53.9 49.942 49.005 53 43.752 53zm-11.744-9.161C35.214 48.463 39.365 51 43.752 51c4.436 0 8.63-2.594 11.85-7.317-3.206-4.624-7.356-7.161-11.743-7.161-4.437 0-8.63 2.594-11.851 7.317z" fill="#8697cb"/></svg>