<svg xmlns="http://www.w3.org/2000/svg" viewBox="0 0 58.018 58.018"><path fill="#dcd6cd" d="M0 4.518v39h56v-39z"/><path d="M30.965 26.625c-1.637 1.462-4.292 1.462-5.93 0l-2.087-1.843C16.419 30.61 0 43.518 0 43.518h56S39.581 30.609 33.052 24.782l-2.087 1.843z" fill="#e8e3d9"/><path d="M0 4.518l25.035 22.107c1.637 1.462 4.292 1.462 5.93 0L56 4.518H0z" fill="#efebde"/><circle cx="43.796" cy="38.314" r="9.796" fill="#d0e8f9"/><path d="M47.348 29.193L34.675 41.867a9.823 9.823 0 0 0 3.495 4.459l13.638-13.638a9.826 9.826 0 0 0-4.46-3.495z" fill="#eaf6fd"/><path d="M57.741 51.809l-5.97-6.244a10.74 10.74 0 0 0 2.82-7.251c0-5.953-4.843-10.796-10.796-10.796S33 32.362 33 38.314 37.843 49.11 43.796 49.11c2.442 0 4.689-.824 6.499-2.196l6.001 6.276a.997.997 0 0 0 1.414.032 1 1 0 0 0 .031-1.413zM35 38.314c0-4.85 3.946-8.796 8.796-8.796s8.796 3.946 8.796 8.796-3.946 8.796-8.796 8.796S35 43.164 35 38.314z" fill="#8697cb"/></svg>