<svg xmlns="http://www.w3.org/2000/svg" viewBox="0 0 58 58"><path fill="#dcd6cd" d="M0 5.5v39h56v-39z"/><path d="M30.965 27.607c-1.637 1.462-4.292 1.462-5.93 0l-2.087-1.843C16.419 31.591 0 44.5 0 44.5h56S39.581 31.591 33.052 25.764l-2.087 1.843z" fill="#e8e3d9"/><path d="M0 5.5l25.035 22.107c1.637 1.462 4.292 1.462 5.93 0L56 5.5H0z" fill="#efebde"/><path fill="#48a0dc" d="M36 30.5h22v22H36z"/><path fill="#fff" d="M46 36.5h2v16h-2z"/><path fill="#fff" d="M52.293 43.207L47 37.914l-5.293 5.293-1.414-1.414L47 35.086l6.707 6.707z"/></svg>