<svg xmlns="http://www.w3.org/2000/svg" viewBox="0 0 58 58"><path fill="#dcd6cd" d="M0 5.5v39h56v-39z"/><path d="M30.965 27.607c-1.637 1.462-4.292 1.462-5.93 0l-2.087-1.843C16.419 31.591 0 44.5 0 44.5h56S39.581 31.591 33.052 25.764l-2.087 1.843z" fill="#e8e3d9"/><path d="M0 5.5l25.035 22.107c1.637 1.462 4.292 1.462 5.93 0L56 5.5H0z" fill="#efebde"/><path fill="#cbb292" d="M38 36.5h20v16H38z"/><path d="M51 43.5a3 3 0 1 0-6 0 2.99 2.99 0 0 0 2.035 2.827c-.011.058-.035.112-.035.173v2a1 1 0 0 0 2 0v-2c0-.061-.024-.115-.035-.173A2.99 2.99 0 0 0 51 43.5z" fill="#7f5c53"/><path d="M43 34.5c0-2.757 2.243-5 5-5s5 2.243 5 5v2h2v-2c0-3.86-3.14-7-7-7s-7 3.14-7 7v2h2v-2z" fill="#bdc3c7"/></svg>