<svg xmlns="http://www.w3.org/2000/svg" viewBox="0 0 57 57"><path fill="#dcd6cd" d="M0 5.5v39h56v-39z"/><path d="M30.965 27.607c-1.637 1.462-4.292 1.462-5.93 0l-2.087-1.843C16.419 31.591 0 44.5 0 44.5h56S39.581 31.591 33.052 25.764l-2.087 1.843z" fill="#e8e3d9"/><path d="M0 5.5l25.035 22.107c1.637 1.462 4.292 1.462 5.93 0L56 5.5H0z" fill="#efebde"/><path d="M45 34.7c.969-2.183 3.109-4.2 5.684-4.2 3.467 0 5.964 2.821 6.278 6.183 0 0 .17.835-.203 2.337-.508 2.046-1.701 3.864-3.311 5.251L45 51.5l-8.447-7.229c-1.61-1.387-2.803-3.205-3.311-5.251-.373-1.502-.203-2.337-.203-2.337.314-3.362 2.811-6.183 6.278-6.183 2.574 0 4.714 2.017 5.683 4.2z" fill="#f09372"/></svg>