<svg xmlns="http://www.w3.org/2000/svg" viewBox="0 0 57 57"><path fill="#dcd6cd" d="M0 5.5v39h56v-39z"/><path d="M30.965 27.607c-1.637 1.462-4.292 1.462-5.93 0l-2.087-1.843C16.419 31.591 0 44.5 0 44.5h56S39.581 31.591 33.052 25.764l-2.087 1.843z" fill="#e8e3d9"/><path d="M0 5.5l25.035 22.107c1.637 1.462 4.292 1.462 5.93 0L56 5.5H0z" fill="#efebde"/><path d="M56.707 49.793l-6.797-6.797 6.483-3.241-17.637-6.498 6.499 17.637 3.241-6.484 6.797 6.797a.997.997 0 0 0 1.414 0 .999.999 0 0 0 0-1.414z" fill="#3d324c"/></svg>