<svg xmlns="http://www.w3.org/2000/svg" viewBox="0 0 57 57"><path fill="#dcd6cd" d="M0 4.5v39h56v-39z"/><path d="M30.965 26.607c-1.637 1.462-4.292 1.462-5.93 0l-2.087-1.843C16.419 30.591 0 43.5 0 43.5h56S39.581 30.591 33.052 24.764l-2.087 1.843z" fill="#e8e3d9"/><path d="M0 4.5l25.035 22.107c1.637 1.462 4.292 1.462 5.93 0L56 4.5H0z" fill="#efebde"/><path d="M57 39.346l-1.444-.278c-2.143-.412-3.125-2.916-1.835-4.675l.907-1.236-1.958-1.958-1.217.825c-1.806 1.224-4.272.148-4.604-2.008l-.234-1.516h-2.769l-.359 1.865c-.403 2.096-2.818 3.096-4.585 1.899l-1.572-1.065-1.958 1.958.907 1.236c1.29 1.76.308 4.263-1.835 4.675L33 39.346v2.769l1.515.233c2.157.332 3.232 2.797 2.008 4.604l-.825 1.217 1.958 1.958 1.236-.907c1.76-1.29 4.263-.308 4.675 1.835l.278 1.444h2.769l.164-1.066c.339-2.204 2.896-3.263 4.694-1.944l.869.638 1.958-1.958-.825-1.217c-1.224-1.806-.148-4.272 2.008-4.604L57 42.115v-2.769z" fill="#556080"/><circle cx="45" cy="40.5" r="4" fill="#fff"/><path d="M45 45.5c-2.757 0-5-2.243-5-5s2.243-5 5-5 5 2.243 5 5-2.243 5-5 5zm0-8c-1.654 0-3 1.346-3 3s1.346 3 3 3 3-1.346 3-3-1.346-3-3-3z" fill="#ecf0f1"/></svg>