<svg xmlns="http://www.w3.org/2000/svg" viewBox="0 0 58 58"><path fill="#dcd6cd" d="M0 5.146v39h56v-39z"/><path d="M30.965 27.253c-1.637 1.462-4.292 1.462-5.93 0l-2.087-1.843C16.419 31.238 0 44.146 0 44.146h56S39.581 31.237 33.052 25.41l-2.087 1.843z" fill="#e8e3d9"/><path d="M0 5.146l25.035 22.107c1.637 1.462 4.292 1.462 5.93 0L56 5.146H0z" fill="#efebde"/><path fill="#eddcc7" d="M36.566 43.361l-.007.007-1.988 7.29 4.646-4.647z"/><path d="M55.816 29.412l-1.247-1.247a1.985 1.985 0 0 0-2.807 0l-3.582 3.582 2.651 2.651 4.985-4.986z" fill="#d75a4a"/><path fill="#f29c21" d="M48.18 31.746l2.65 2.651-11.613 11.614-2.65-2.651z"/><path fill="#d6c4b1" d="M42.216 49.025l.007-.007-3.006-3.007-4.646 4.647-.134.488z"/><path d="M53.837 37.404l3.582-3.582a1.985 1.985 0 0 0 0-2.807l-1.602-1.602-4.985 4.985 3.005 3.006z" fill="#a34740"/><path fill="#e18c25" d="M42.223 49.019l-3.006-3.006L50.83 34.399l3.006 3.006z"/><path d="M33.73 52.854a.999.999 0 0 1-.707-1.707l2.207-2.207a.999.999 0 1 1 1.414 1.414l-2.207 2.207a.997.997 0 0 1-.707.293z" fill="#5e5e5e"/></svg>