<svg xmlns="http://www.w3.org/2000/svg" viewBox="0 0 58 58"><path fill="#dcd6cd" d="M0 5.5v39h56v-39z"/><path d="M30.965 27.607c-1.637 1.462-4.292 1.462-5.93 0l-2.087-1.843C16.419 31.591 0 44.5 0 44.5h56S39.581 31.591 33.052 25.764l-2.087 1.843z" fill="#e8e3d9"/><path d="M0 5.5l25.035 22.107c1.637 1.462 4.292 1.462 5.93 0L56 5.5H0z" fill="#efebde"/><path fill="#21ae5e" d="M36 30.5h22v22H36z"/><path fill="#fff" d="M46 32.086h2v16h-2z"/><path fill="#fff" d="M47 49.5l-7-6.707 1.476-1.414L47 46.672l5.524-5.293L54 42.793z"/></svg>