<svg xmlns="http://www.w3.org/2000/svg" viewBox="0 0 512 512"><path d="M256.018 0C179.783-.011 117.971 61.785 117.96 138.02c-.007 53.647 30.581 100.145 75.277 122.99l-.031 226.233 39.012 24.752 35.263.005h.006l51.213-51.199-19.445-32.001 19.454-31.996-30.681-43.24 30.693-43.231.007-49.305c44.703-22.833 75.303-69.323 75.311-122.97C394.048 61.823 332.253.011 256.018 0zm-.019 132.45c-20.271-.002-36.701-16.438-36.699-36.709s16.438-36.701 36.709-36.699c20.271.002 36.701 16.438 36.699 36.708-.003 20.272-16.437 36.702-36.709 36.7z" fill="#fcd577"/><g fill="#eac36e"><path d="M255.983 138.338c-23.485 0-42.592-19.107-42.592-42.592s19.107-42.592 42.592-42.592 42.592 19.107 42.592 42.592-19.108 42.592-42.592 42.592zm0-73.408c-16.992 0-30.816 13.824-30.816 30.816s13.824 30.816 30.816 30.816 30.816-13.824 30.816-30.816-13.824-30.816-30.816-30.816zM199.461 174.627h113.05v17.664h-113.05zM232.222 266.916h15.526v245.083h-15.526z"/></g></svg>