<svg version="1" xmlns="http://www.w3.org/2000/svg" width="933.333" height="933.333" viewBox="0 0 700.000000 700.000000"><path d="M327.9.4c-.2.2-4 .6-8.4 1-12.2.9-17.3 1.6-35.5 5-7.6 1.4-18.3 3.9-24.3 5.7l-6.8 2-6.7-2.5c-17-6.4-41.8-8.1-61.2-4.1-1.4.2-3.8.7-5.5 1.1-53.9 10.9-102.1 55.5-121 111.9-3.6 10.6-3.9 11.9-5 16.7-2.9 13.7-3.5 17.9-4.2 33.2l-.6 14-5.5 11.5C29 226 19.3 259.7 14.3 296c-2.5 18.5-2.4 69 .2 85.5.2 1.6 1.2 7.5 2 13 5.8 36.4 20.2 76.3 40.6 112.5 5.7 10.3 21.7 33.4 30.5 44.5 11.8 14.7 35 37.7 50.4 50 20.1 16.1 47.5 33.4 66.5 42 3.3 1.5 8.7 4 12 5.5 19.7 9.1 50.5 18.2 76 22.5 5.5.9 13.1 3 17 4.7 19.6 8.5 44.1 15.7 62.2 18.3 2.1.3 4.4.8 5.1 1.1.8.2 3.7.7 6.5 1 2.9.2 6.1.7 7.2.9 13.2 2.7 62.5 2.7 83.5 0 49-6.2 90.9-25.5 118.8-54.7 17.7-18.6 31.8-46 34.7-67.8.3-2.5 1-5.9 1.4-7.5.4-1.7.7-10.9.6-20.5l-.2-17.5 6.2-10c8.5-13.6 13.9-23.2 19.1-34.5 2.5-5.2 5-10.3 5.5-11.4 5-8.9 15.9-42.7 20.4-63 5.4-24.7 7.6-45.3 7.5-73.6 0-18.5-.2-22.6-2.1-39.5-8.2-72.2-42.1-142.5-94.6-196.4l-5.3-5.4 2-3.1c7.8-11.8 11.5-23.1 10.7-32.5-.8-9.7-3.2-14.5-10.5-21.8-6-6-11.3-7.6-23.7-7.6-9.2 0-12.2.4-18.6 2.6-8.2 2.8-24.6 10.4-25.4 11.8-.3.4-3.1-.7-6.3-2.5-4.7-2.8-24.2-12.4-31.7-15.6-1.1-.5-4.2-1.8-6.8-3-19.1-8.4-56-18-80.3-21-4.9-.6-10-1.3-11.4-1.6-3-.7-55.4-1.6-56.1-1zM204.5 33c-.3.5-1.3 1-2.2 1-.8 0-2.7.8-4.1 1.8-1.5 1-4.5 2.7-6.7 3.7-10.5 4.8-32.9 19.3-48.5 31.3-17.7 13.7-39.3 34.4-52.3 50.4-3.9 4.8-7.2 8.6-7.4 8.4-.5-.4 7.4-19 9.6-22.8 10.6-18.2 17.9-27.6 30.3-39.4 8.7-8.2 19.2-15.9 28.8-21.1 10.3-5.6 29.1-11.7 39.9-13 2.5-.3 4.8-.7 5-.9 1-.9 8.2-.3 7.6.6zm366.6 24.7c1.5 1.5 1.6 5.8.3 9.7-1.9 5.2-5.5 11-6.3 9.9-.3-.5-4.8-4-9.8-7.8-5.1-3.7-9.3-7.2-9.3-7.6 0-.4 3.5-1.8 7.7-3.2 7.4-2.4 15.6-2.8 17.4-1zM343.5 178.5c15.9 23.2 35.7 31.6 56.5 24 4.5-1.6 16.9-9.5 19.1-12.1.6-.8 1.7-1.4 2.3-1.4 2.1 0 18.9 10.1 28.1 17 12.5 9.2 28.8 25.8 28 28.5-1.8 6.3-4.5 17.6-5 21-.4 2.2-1 5.7-1.5 7.9-1.4 6.3-.5 36.1 1.4 45.4 4.6 22.4 15.2 43.4 32 63.2 3.1 3.6 5.6 7.1 5.6 7.8 0 2.5-6.9 21.9-10.5 29.6-3.3 6.9-11.9 21.6-14.6 25-8.4 10.7-12.5 15.3-18.8 21.6-40.1 39.9-96.9 55.7-154.6 43-5.5-1.2-13.9-3.7-17-5-1.1-.5-3.1-1.2-4.4-1.5-4.1-1.2-19.2-8.6-26-12.9-8.5-5.2-22.1-15.5-22.6-16.9-.2-.7-.6-7.1-.9-14.2-.4-7.2-.8-14.6-1.1-16.5-.2-1.9-.7-5.8-1-8.5-.6-4.2-1.4-8.8-4.1-22-.2-1.1-.6-3.2-.9-4.7-.8-4.2-6.4-19.6-9.7-26.8-7.1-15.3-16.1-27.6-29.6-40.7l-8.4-8.2.6-5.8c5-41.6 29.4-83.3 64.1-109.3 23.3-17.5 50.8-28.3 82-32.3 6.9-.9 7.1-.8 11 4.8zm41.8-1.9c2 .3 3.7 1.1 3.7 1.6 0 1.6-8.4.3-11.1-1.7l-2.4-1.7 3 .6c1.7.3 4.7.8 6.8 1.2zm116.1 94.3c5 11.3 9.6 27.1 12 42.1 1.7 10.5 2.6 26.4 1.5 28.1-.6 1-6.2-8.5-10.2-17.1-3-6.8-5.3-14.6-7.2-25-1.6-8.5-1.2-34 .5-34 .4 0 1.9 2.7 3.4 5.9zm-304 105.4c6.6 12.8 12.7 32.4 14.2 46 .3 2.9.7 5.9 1 6.7 1.1 3.6-4-4.5-9.4-15-7.6-14.7-14.4-35.6-16.6-51l-.7-4.5 4 5.7c2.3 3.1 5.6 8.5 7.5 12.1zm404.3 191.9c-1.1 7.4-1.7 10.2-3.4 15.3-13 40.2-50.3 70.5-102.8 83.4-4.4 1.1-10.2 2.2-12.9 2.6-2.7.3-5.2.8-5.5 1-.5.3-4.2.7-17.6 2.1-5.8.7-41.1 1.1-47.2.6-6.3-.5-6.1-1.7.4-2.7 17.8-2.6 51.8-12.9 70.9-21.5 42.8-19.3 76-41.9 105.5-72.1 6.8-7 12.6-12.7 12.8-12.8.2 0 .1 1.8-.2 4.1zm-196 104.4c-.3.3-1.2.4-1.9.1-.8-.3-.5-.6.6-.6 1.1-.1 1.7.2 1.3.5z"/></svg>